<svg width="41" height="40" viewBox="0 0 41 40" fill="none" xmlns="http://www.w3.org/2000/svg">
<g id="Group 46">
<path id="Shape" fill-rule="evenodd" clip-rule="evenodd" d="M38.0924 13.2285L27.3034 11.5861L22.4763 1.34177C21.6314 -0.447258 18.8367 -0.447258 17.9917 1.34177L13.1672 11.5861L2.37564 13.2285C0.333328 13.5402 -0.494097 16.1805 0.990769 17.6997L8.80006 25.6731L6.95773 36.9338C6.61026 39.066 8.75007 40.7031 10.5849 39.6946L20.234 34.3799L29.8857 39.6972C31.7055 40.6952 33.8628 39.0843 33.5128 36.9364L31.6705 25.6757L39.4798 17.7024C40.9622 16.1805 40.1347 13.5402 38.0924 13.2285Z" fill="#E1E6F0"/>
<path id="Combined Shape" fill-rule="evenodd" clip-rule="evenodd" d="M25.0827 19.5556C26.0869 19.5556 26.9009 18.7596 26.9009 17.7778C26.9009 16.7959 26.0869 16 25.0827 16C24.0786 16 23.2645 16.7959 23.2645 17.7778C23.2645 18.7596 24.0786 19.5556 25.0827 19.5556ZM17.2042 17.7778C17.2042 18.7596 16.3902 19.5556 15.3861 19.5556C14.3819 19.5556 13.5679 18.7596 13.5679 17.7778C13.5679 16.796 14.3819 16 15.3861 16C16.3902 16 17.2042 16.796 17.2042 17.7778ZM14.174 26.8147C14.174 26.1602 14.7046 25.6295 15.3592 25.6295H25.11C25.7646 25.6295 26.2952 26.1602 26.2952 26.8147C26.2952 27.4693 25.7646 27.9999 25.11 27.9999H15.3592C14.7046 27.9999 14.174 27.4693 14.174 26.8147Z" fill="#999999"/>
</g>
</svg>
