<svg width="41" height="40" viewBox="0 0 41 40" fill="none" xmlns="http://www.w3.org/2000/svg">
<g id="Group 48">
<path id="Shape" fill-rule="evenodd" clip-rule="evenodd" d="M37.9752 13.2285L27.1862 11.5861L22.3591 1.34177C21.5142 -0.447258 18.7195 -0.447258 17.8745 1.34177L13.05 11.5861L2.25846 13.2285C0.21614 13.5402 -0.611285 16.1805 0.873581 17.6997L8.68288 25.6731L6.84054 36.9338C6.49307 39.066 8.63288 40.7031 10.4677 39.6946L20.1168 34.3799L29.7685 39.6972C31.5883 40.6952 33.7456 39.0843 33.3956 36.9364L31.5533 25.6757L39.3626 17.7024C40.845 16.1805 40.0175 13.5402 37.9752 13.2285Z" fill="#E1E6F0"/>
<path id="Combined Shape" fill-rule="evenodd" clip-rule="evenodd" d="M24.9654 19.6C25.9697 19.6 26.7837 18.7941 26.7837 17.8C26.7837 16.8059 25.9697 16 24.9654 16C23.9612 16 23.1471 16.8059 23.1471 17.8C23.1471 18.7941 23.9612 19.6 24.9654 19.6ZM17.0868 17.8C17.0868 18.7941 16.2727 19.6 15.2685 19.6C14.2643 19.6 13.4502 18.7941 13.4502 17.8C13.4502 16.8059 14.2643 16 15.2685 16C16.2727 16 17.0868 16.8059 17.0868 17.8ZM14.1385 25.6056L14.152 25.5955C14.3015 25.4878 17.166 23.453 20.1769 23.453C23.1694 23.453 26.0736 25.4632 26.2586 25.5934C26.265 25.5979 26.2714 25.6025 26.2776 25.6073C26.8811 26.0633 26.9241 26.6096 26.796 27.065C26.6298 27.6555 25.8948 27.7173 25.3747 27.3921C24.2375 26.6811 22.1791 25.6 20.1769 25.6C18.0672 25.6 15.9254 26.8001 14.8518 27.503C14.4204 27.7855 13.8182 27.8175 13.5632 27.3693C13.309 26.9226 13.2433 26.2842 14.1385 25.6056Z" fill="#999999"/>
</g>
</svg>
