<svg width="20" height="20" viewBox="0 0 20 20" fill="none" xmlns="http://www.w3.org/2000/svg">
<mask id="mask0_4516_13151" style="mask-type:alpha" maskUnits="userSpaceOnUse" x="0" y="0" width="20" height="20">
<rect width="20" height="20" fill="#D9D9D9"/>
</mask>
<g mask="url(#mask0_4516_13151)">
<path d="M7.125 15.229C6.75 15.229 6.434 15.104 6.177 14.854C5.92 14.604 5.7915 14.2985 5.7915 13.9375V3.625C5.7915 3.264 5.92 2.9585 6.177 2.7085C6.434 2.4585 6.75 2.3335 7.125 2.3335H14.896C15.257 2.3335 15.566 2.462 15.823 2.719C16.08 2.97566 16.2085 3.27766 16.2085 3.625V13.9375C16.2085 14.2985 16.08 14.604 15.823 14.854C15.566 15.104 15.257 15.229 14.896 15.229H7.125ZM7.125 14.1875H14.896C14.9793 14.1875 15.0418 14.1632 15.0835 14.1145C15.1252 14.0658 15.146 14.0068 15.146 13.9375V3.625C15.146 3.55566 15.1252 3.49666 15.0835 3.448C15.0418 3.39933 14.9793 3.375 14.896 3.375H7.125C7.04167 3.375 6.97217 3.39933 6.9165 3.448C6.86117 3.49666 6.8335 3.55566 6.8335 3.625V13.9375C6.8335 14.0068 6.86117 14.0658 6.9165 14.1145C6.97217 14.1632 7.04167 14.1875 7.125 14.1875ZM4.5835 17.75C4.23617 17.75 3.934 17.6215 3.677 17.3645C3.42 17.1075 3.2915 16.7985 3.2915 16.4375V5.9585C3.2915 5.8055 3.34017 5.6805 3.4375 5.5835C3.53484 5.48616 3.65984 5.4375 3.8125 5.4375C3.96517 5.4375 4.09017 5.48616 4.1875 5.5835C4.28484 5.6805 4.3335 5.8055 4.3335 5.9585V16.4375C4.3335 16.5068 4.36117 16.5693 4.4165 16.625C4.47217 16.6807 4.52784 16.7085 4.5835 16.7085H12.479C12.632 16.7085 12.757 16.757 12.854 16.854C12.9513 16.9513 13 17.0763 13 17.229C13 17.382 12.9513 17.507 12.854 17.604C12.757 17.7013 12.632 17.75 12.479 17.75H4.5835Z" fill="#003323"/>
</g>
</svg>
