<svg width="32" height="32" viewBox="0 0 32 32" fill="none" xmlns="http://www.w3.org/2000/svg">
<circle cx="16" cy="16" r="16" fill="white"/>
<path fill-rule="evenodd" clip-rule="evenodd" d="M10.2441 10.2375C10.5695 9.92084 11.0972 9.92084 11.4226 10.2375L16 14.6912L20.5774 10.2375C20.9029 9.92084 21.4305 9.92084 21.7559 10.2375C22.0814 10.5541 22.0814 11.0675 21.7559 11.3841L17.0119 16L21.7559 20.6159C22.0814 20.9325 22.0814 21.4459 21.7559 21.7625C21.4305 22.0792 20.9029 22.0792 20.5774 21.7625L16 17.3088L11.4226 21.7625C11.0972 22.0792 10.5695 22.0792 10.2441 21.7625C9.91864 21.4459 9.91864 20.9325 10.2441 20.6159L14.9882 16L10.2441 11.3841C9.91864 11.0675 9.91864 10.5541 10.2441 10.2375Z" fill="#24342B"/>
</svg>
