<svg width="41" height="40" viewBox="0 0 41 40" fill="none" xmlns="http://www.w3.org/2000/svg">
<g id="Group 44">
<path id="Shape" fill-rule="evenodd" clip-rule="evenodd" d="M38.3268 13.2285L27.5378 11.5861L22.7107 1.34177C21.8658 -0.447258 19.071 -0.447258 18.2261 1.34177L13.4015 11.5861L2.61002 13.2285C0.567703 13.5402 -0.259722 16.1805 1.22514 17.6997L9.03444 25.6731L7.19211 36.9338C6.84464 39.066 8.98444 40.7031 10.8193 39.6946L20.4684 34.3799L30.12 39.6972C31.9399 40.6952 34.0972 39.0843 33.7472 36.9364L31.9049 25.6757L39.7142 17.7024C41.1965 16.1805 40.3691 13.5402 38.3268 13.2285Z" fill="#F2C94C"/>
<path id="Combined Shape" fill-rule="evenodd" clip-rule="evenodd" d="M23.1631 18.9095C23.1506 19.0116 23.2656 19.0706 23.3465 19.007C23.8417 18.6176 25.1059 17.6806 25.8075 17.6806C26.5093 17.6806 27.7786 18.6181 28.2753 19.0074C28.3563 19.0708 28.4712 19.0115 28.4585 18.9094C28.3639 18.1474 27.9108 16 25.8075 16C23.7042 16 23.2559 18.1475 23.1631 18.9095ZM12.477 18.9095C12.4646 19.0116 12.5795 19.0707 12.6604 19.0071C13.1556 18.6176 14.4198 17.6806 15.1214 17.6806C15.8233 17.6806 17.0925 18.6181 17.5892 19.0074C17.6702 19.0709 17.7851 19.0115 17.7724 18.9094C17.6778 18.1474 17.2247 16 15.1214 16C13.0181 16 12.5699 18.1475 12.477 18.9095ZM20.4534 28.0218C22.6721 28.0218 24.4708 27.0922 24.4708 25.9455C24.4708 25.1027 23.4993 25.168 22.1035 25.2619C21.6001 25.2957 21.0415 25.3333 20.4534 25.3333C19.8653 25.3333 19.3067 25.2957 18.8033 25.2619C17.4075 25.168 16.4361 25.1027 16.4361 25.9455C16.4361 27.0922 18.2347 28.0218 20.4534 28.0218Z" fill="white"/>
</g>
</svg>
