<svg width="41" height="40" viewBox="0 0 41 40" fill="none" xmlns="http://www.w3.org/2000/svg">
<g id="Group 45">
<path id="Shape" fill-rule="evenodd" clip-rule="evenodd" d="M38.2096 13.2285L27.4206 11.5861L22.5935 1.34177C21.7486 -0.447258 18.9538 -0.447258 18.1089 1.34177L13.2844 11.5861L2.49283 13.2285C0.450515 13.5402 -0.37691 16.1805 1.10796 17.6997L8.91725 25.6731L7.07492 36.9338C6.72745 39.066 8.86726 40.7031 10.7021 39.6946L20.3512 34.3799L30.0028 39.6972C31.8227 40.6952 33.98 39.0843 33.63 36.9364L31.7877 25.6757L39.597 17.7024C41.0793 16.1805 40.2519 13.5402 38.2096 13.2285Z" fill="#F2C94C"/>
<path id="Combined Shape" fill-rule="evenodd" clip-rule="evenodd" d="M25.1993 19.6C26.2035 19.6 27.0176 18.7941 27.0176 17.8C27.0176 16.8059 26.2035 16 25.1993 16C24.1951 16 23.381 16.8059 23.381 17.8C23.381 18.7941 24.1951 19.6 25.1993 19.6ZM17.3212 17.8C17.3212 18.7941 16.5071 19.6 15.5029 19.6C14.4986 19.6 13.6846 18.7941 13.6846 17.8C13.6846 16.8059 14.4986 16 15.5029 16C16.5071 16 17.3212 16.8059 17.3212 17.8ZM14.3729 25.8474L14.3864 25.8575C14.5359 25.9652 17.4004 28 20.4112 28C23.4038 28 26.308 25.9898 26.4929 25.8596C26.4994 25.8551 26.5057 25.8504 26.512 25.8457C27.1155 25.3897 27.1584 24.8434 27.0303 24.388C26.8642 23.7975 26.1292 23.7357 25.609 24.0609C24.4718 24.7719 22.4135 25.853 20.4112 25.853C18.3016 25.853 16.1597 24.6529 15.0862 23.9499C14.6548 23.6675 14.0526 23.6355 13.7975 24.0837C13.5434 24.5304 13.4777 25.1688 14.3729 25.8474Z" fill="white"/>
</g>
</svg>
