<svg width="40" height="40" viewBox="0 0 40 40" fill="none" xmlns="http://www.w3.org/2000/svg">
<g id="Group 50">
<path id="Shape" fill-rule="evenodd" clip-rule="evenodd" d="M37.858 13.2285L27.069 11.5861L22.242 1.34177C21.397 -0.447258 18.6023 -0.447258 17.7574 1.34177L12.9328 11.5861L2.14127 13.2285C0.0989529 13.5402 -0.728472 16.1805 0.756394 17.6997L8.56569 25.6731L6.72336 36.9338C6.37589 39.066 8.51569 40.7031 10.3505 39.6946L19.9997 34.3799L29.6513 39.6972C31.4711 40.6952 33.6284 39.0843 33.2785 36.9364L31.4361 25.6757L39.2454 17.7024C40.7278 16.1805 39.9004 13.5402 37.858 13.2285Z" fill="#E1E6F0"/>
<path id="Combined Shape" fill-rule="evenodd" clip-rule="evenodd" d="M25.0021 18.4766L26.433 17.1532C26.7176 16.89 26.7176 16.44 26.433 16.1768C26.1781 15.9411 25.7848 15.9411 25.5299 16.1768L23.5785 17.9816L23.5712 17.9883C23.4283 18.1205 23.3571 18.2997 23.3577 18.4787C23.3582 18.6563 23.4294 18.8337 23.5712 18.9648L23.5785 18.9715L25.5299 20.7763C25.7848 21.0121 26.1781 21.0121 26.433 20.7763C26.7176 20.5131 26.7176 20.0632 26.433 19.7999L25.0021 18.4766ZM13.5702 17.1532L15.0011 18.4766L13.5702 19.8C13.2856 20.0632 13.2856 20.5131 13.5702 20.7764C13.8251 21.0121 14.2184 21.0121 14.4733 20.7764L16.4247 18.9716L16.4321 18.9649C16.5738 18.8337 16.645 18.6563 16.6455 18.4787C16.6461 18.2997 16.5749 18.1205 16.4321 17.9883L16.4247 17.9816L14.4733 16.1768C14.2184 15.9411 13.8251 15.9411 13.5702 16.1768C13.2856 16.4401 13.2856 16.89 13.5702 17.1532ZM13.5972 26.8112C13.3267 26.9882 13.2329 27.3406 13.3796 27.6287C13.5507 27.9645 13.9754 28.0775 14.2907 27.8712L16.9542 26.1286L19.6176 27.8712C19.7361 27.9487 19.8701 27.9811 20.0002 27.9736C20.1303 27.9811 20.2642 27.9487 20.3827 27.8712L23.0462 26.1286L25.7096 27.8712C26.025 28.0775 26.4496 27.9645 26.6207 27.6287C26.7675 27.3406 26.6737 26.9882 26.4031 26.8112L23.462 24.887C23.3334 24.8028 23.1866 24.7718 23.0462 24.7873C22.9058 24.7718 22.759 24.8028 22.6303 24.887L20.0002 26.6078L17.37 24.887C17.2414 24.8028 17.0946 24.7718 16.9542 24.7873C16.8138 24.7718 16.667 24.8028 16.5383 24.887L13.5972 26.8112Z" fill="#999999"/>
</g>
</svg>
